<svg width="1600" height="1000" viewBox="0 0 1600 1000" fill="none" xmlns="http://www.w3.org/2000/svg">
  <defs>
    <linearGradient id="bg" x1="0" y1="0" x2="1600" y2="1000" gradientUnits="userSpaceOnUse">
      <stop offset="0" stop-color="#16080D"/>
      <stop offset="0.42" stop-color="#05070B"/>
      <stop offset="1" stop-color="#07150F"/>
    </linearGradient>
    <radialGradient id="redGlow" cx="0" cy="0" r="1" gradientUnits="userSpaceOnUse" gradientTransform="translate(260 178) rotate(24) scale(620 420)">
      <stop stop-color="#FF6B74" stop-opacity="0.34"/>
      <stop offset="0.48" stop-color="#FF6B74" stop-opacity="0.08"/>
      <stop offset="1" stop-color="#FF6B74" stop-opacity="0"/>
    </radialGradient>
    <radialGradient id="cyanGlow" cx="0" cy="0" r="1" gradientUnits="userSpaceOnUse" gradientTransform="translate(1300 850) rotate(-20) scale(720 420)">
      <stop stop-color="#6FFFE1" stop-opacity="0.26"/>
      <stop offset="0.48" stop-color="#6FFFE1" stop-opacity="0.07"/>
      <stop offset="1" stop-color="#6FFFE1" stop-opacity="0"/>
    </radialGradient>
    <linearGradient id="panel" x1="86" y1="72" x2="1518" y2="938" gradientUnits="userSpaceOnUse">
      <stop stop-color="#181016"/>
      <stop offset="0.46" stop-color="#0A0C12"/>
      <stop offset="1" stop-color="#111A17"/>
    </linearGradient>
    <linearGradient id="card" x1="0" y1="0" x2="1" y2="1">
      <stop stop-color="#1B1D25" stop-opacity="0.95"/>
      <stop offset="1" stop-color="#0B0D12" stop-opacity="0.95"/>
    </linearGradient>
    <linearGradient id="accent" x1="160" y1="0" x2="1440" y2="0" gradientUnits="userSpaceOnUse">
      <stop stop-color="#FF6573"/>
      <stop offset="0.52" stop-color="#77B7FF"/>
      <stop offset="1" stop-color="#78F5C6"/>
    </linearGradient>
    <filter id="softShadow" x="-20%" y="-20%" width="140%" height="140%">
      <feDropShadow dx="0" dy="26" stdDeviation="34" flood-color="#000000" flood-opacity="0.45"/>
    </filter>
    <filter id="glow" x="-40%" y="-40%" width="180%" height="180%">
      <feGaussianBlur stdDeviation="8" result="blur"/>
      <feMerge>
        <feMergeNode in="blur"/>
        <feMergeNode in="SourceGraphic"/>
      </feMerge>
    </filter>
    <pattern id="grid" width="56" height="56" patternUnits="userSpaceOnUse">
      <path d="M 56 0 L 0 0 0 56" fill="none" stroke="#FFFFFF" stroke-opacity="0.055" stroke-width="1"/>
    </pattern>
  </defs>

  <rect width="1600" height="1000" fill="#020408"/>
  <rect width="1600" height="1000" fill="url(#bg)"/>
  <rect width="1600" height="1000" fill="url(#redGlow)"/>
  <rect width="1600" height="1000" fill="url(#cyanGlow)"/>

  <g filter="url(#softShadow)">
    <rect x="80" y="74" width="1440" height="852" rx="56" fill="url(#panel)" stroke="#FFFFFF" stroke-opacity="0.13"/>
    <rect x="112" y="104" width="1376" height="794" rx="42" fill="#06080D" fill-opacity="0.45" stroke="#FFFFFF" stroke-opacity="0.08"/>
  </g>

  <rect x="140" y="154" width="1320" height="4" rx="2" fill="url(#accent)" opacity="0.92"/>
  <g opacity="0.96">
    <rect x="140" y="120" width="96" height="16" rx="8" fill="#FF6573"/>
    <rect x="254" y="120" width="64" height="16" rx="8" fill="#2A2E38"/>
    <rect x="334" y="120" width="52" height="16" rx="8" fill="#2A2E38"/>
    <circle cx="1400" cy="128" r="9" fill="#78F5C6" opacity="0.9"/>
    <circle cx="1430" cy="128" r="9" fill="#77B7FF" opacity="0.85"/>
    <circle cx="1460" cy="128" r="9" fill="#FF6573" opacity="0.85"/>
  </g>

  <g font-family="Inter, ui-sans-serif, system-ui, -apple-system, BlinkMacSystemFont, Segoe UI, sans-serif">
    <g opacity="0.96">
      <rect x="140" y="192" width="300" height="112" rx="28" fill="url(#card)" stroke="#FFFFFF" stroke-opacity="0.12"/>
      <rect x="476" y="192" width="300" height="112" rx="28" fill="url(#card)" stroke="#FFFFFF" stroke-opacity="0.12"/>
      <rect x="812" y="192" width="300" height="112" rx="28" fill="url(#card)" stroke="#FFFFFF" stroke-opacity="0.12"/>
      <rect x="1148" y="192" width="312" height="112" rx="28" fill="url(#card)" stroke="#FFFFFF" stroke-opacity="0.12"/>
      <text x="166" y="231" font-size="24" fill="#AEB6C5">OK</text>
      <text x="166" y="278" font-size="48" fill="#FFF9EE" font-weight="700">16/16</text>
      <text x="502" y="231" font-size="24" fill="#AEB6C5">QUEUE</text>
      <text x="502" y="278" font-size="48" fill="#FFF9EE" font-weight="700">0</text>
      <text x="838" y="231" font-size="24" fill="#AEB6C5">LOG</text>
      <text x="838" y="278" font-size="48" fill="#FFF9EE" font-weight="700">128</text>
      <text x="1174" y="231" font-size="24" fill="#AEB6C5">CONF</text>
      <text x="1174" y="278" font-size="48" fill="#FFF9EE" font-weight="700">0.92</text>
    </g>

    <g>
      <rect x="140" y="337" width="760" height="76" rx="24" fill="#10141D" stroke="#FFFFFF" stroke-opacity="0.12"/>
      <rect x="164" y="357" width="122" height="36" rx="18" fill="#27151B" stroke="#FF6573" stroke-opacity="0.45"/>
      <rect x="302" y="357" width="122" height="36" rx="18" fill="#11151F" stroke="#FFFFFF" stroke-opacity="0.1"/>
      <rect x="440" y="357" width="122" height="36" rx="18" fill="#11151F" stroke="#FFFFFF" stroke-opacity="0.1"/>
      <rect x="578" y="357" width="142" height="36" rx="18" fill="#11151F" stroke="#FFFFFF" stroke-opacity="0.1"/>
      <rect x="736" y="357" width="122" height="36" rx="18" fill="#11151F" stroke="#FFFFFF" stroke-opacity="0.1"/>
      <text x="190" y="381" font-size="16" fill="#FFF9EE" font-weight="700">PHOTO</text>
      <text x="328" y="381" font-size="16" fill="#B5BDCC" font-weight="650">BATCH</text>
      <text x="468" y="381" font-size="16" fill="#B5BDCC" font-weight="650">VIDEO</text>
      <text x="604" y="381" font-size="16" fill="#B5BDCC" font-weight="650">WEBCAM</text>
      <text x="768" y="381" font-size="16" fill="#B5BDCC" font-weight="650">LOG</text>
    </g>

    <g filter="url(#softShadow)">
      <rect x="140" y="444" width="790" height="372" rx="34" fill="#0A0E14" stroke="#FFFFFF" stroke-opacity="0.11"/>
      <rect x="170" y="474" width="730" height="312" rx="24" fill="#07100C"/>
      <rect x="170" y="474" width="730" height="312" rx="24" fill="url(#grid)" opacity="0.8"/>
      <rect x="170" y="474" width="730" height="312" rx="24" fill="#0E1514" fill-opacity="0.42"/>
      <path d="M170 528H900M170 586H900M170 644H900M170 702H900" stroke="#FFFFFF" stroke-opacity="0.035"/>
      <path d="M252 474V786M370 474V786M488 474V786M606 474V786M724 474V786M842 474V786" stroke="#FFFFFF" stroke-opacity="0.035"/>

      <circle cx="538" cy="604" r="72" fill="#141A20" stroke="#EDE8DD" stroke-opacity="0.18" stroke-width="3"/>
      <circle cx="540" cy="565" r="45" fill="#1F2630" stroke="#FFF8EA" stroke-opacity="0.22" stroke-width="3"/>
      <path d="M442 716C462 654 497 625 540 625C583 625 620 654 638 716" stroke="#FFF8EA" stroke-opacity="0.22" stroke-width="34" stroke-linecap="round"/>
      <path d="M512 553C530 542 553 544 568 558" stroke="#7EEFD0" stroke-opacity="0.55" stroke-width="4" stroke-linecap="round"/>
      <path d="M514 575C531 588 550 588 568 575" stroke="#FF6573" stroke-opacity="0.42" stroke-width="4" stroke-linecap="round"/>

      <rect x="407" y="488" width="270" height="320" rx="16" stroke="#78F5C6" stroke-width="4" stroke-opacity="0.9"/>
      <path d="M407 538V488H457M627 488H677V538M677 758V808H627M457 808H407V758" stroke="#FFF9EE" stroke-width="5" stroke-linecap="round" opacity="0.92"/>
      <rect x="465" y="504" width="154" height="118" rx="14" stroke="#77B7FF" stroke-width="3" stroke-opacity="0.95"/>
      <rect x="427" y="454" width="182" height="36" rx="18" fill="#10241D" stroke="#78F5C6" stroke-opacity="0.4"/>
      <circle cx="451" cy="472" r="7" fill="#78F5C6" filter="url(#glow)"/>
      <text x="468" y="478" font-size="16" fill="#DDFCEF" font-weight="800">OWNER 0.92</text>
      <rect x="690" y="522" width="134" height="46" rx="23" fill="#1B141A" stroke="#FF6573" stroke-opacity="0.5"/>
      <text x="718" y="552" font-size="17" fill="#FFF6EB" font-weight="800">SYNCED</text>
      <circle cx="838" cy="545" r="8" fill="#FF6573" filter="url(#glow)"/>
    </g>

    <g filter="url(#softShadow)">
      <rect x="960" y="444" width="500" height="372" rx="34" fill="#0A0E14" stroke="#FFFFFF" stroke-opacity="0.11"/>
      <text x="992" y="497" font-size="28" fill="#FFF9EE" font-weight="850">CHECKLIST</text>
      <rect x="992" y="526" width="436" height="244" rx="22" fill="#0B0E14" stroke="#FFFFFF" stroke-opacity="0.12"/>
      <path d="M992 582H1428M992 638H1428M992 694H1428M1090 526V770M1214 526V770M1320 526V770" stroke="#FFFFFF" stroke-opacity="0.105"/>
      <text x="1024" y="561" font-size="18" fill="#AEB6C5">ID</text>
      <text x="1114" y="561" font-size="18" fill="#AEB6C5">PHOTO</text>
      <text x="1242" y="561" font-size="18" fill="#AEB6C5">VIDEO</text>
      <text x="1348" y="561" font-size="18" fill="#AEB6C5">LIVE</text>
      <rect x="993" y="638" width="434" height="56" fill="#113A24" opacity="0.98"/>
      <text x="1026" y="617" font-size="19" fill="#D5DEEB">07</text>
      <text x="1130" y="617" font-size="20" fill="#D5DEEB">0</text>
      <text x="1265" y="617" font-size="20" fill="#D5DEEB">0</text>
      <text x="1368" y="617" font-size="20" fill="#D5DEEB">0</text>
      <text x="1026" y="674" font-size="19" fill="#FFF9EE" font-weight="800">08</text>
      <text x="1130" y="674" font-size="20" fill="#FFF9EE" font-weight="800">1</text>
      <text x="1265" y="674" font-size="20" fill="#FFF9EE" font-weight="800">0</text>
      <text x="1368" y="674" font-size="20" fill="#FFF9EE" font-weight="800">1</text>
      <circle cx="1402" cy="666" r="10" fill="#78F5C6" filter="url(#glow)"/>
      <text x="1026" y="730" font-size="19" fill="#D5DEEB">09</text>
      <text x="1130" y="730" font-size="20" fill="#D5DEEB">0</text>
      <text x="1265" y="730" font-size="20" fill="#D5DEEB">0</text>
      <text x="1368" y="730" font-size="20" fill="#D5DEEB">0</text>
    </g>

    <g filter="url(#softShadow)">
      <rect x="140" y="840" width="1320" height="34" rx="17" fill="#121821" stroke="#FFFFFF" stroke-opacity="0.1"/>
      <rect x="160" y="849" width="430" height="16" rx="8" fill="#78F5C6" opacity="0.8"/>
      <rect x="608" y="849" width="282" height="16" rx="8" fill="#77B7FF" opacity="0.6"/>
      <rect x="908" y="849" width="134" height="16" rx="8" fill="#FF6573" opacity="0.75"/>
      <rect x="1060" y="849" width="360" height="16" rx="8" fill="#FFFFFF" opacity="0.1"/>
    </g>
  </g>

  <g opacity="0.75">
    <circle cx="292" cy="860" r="2" fill="#78F5C6"/>
    <circle cx="1248" cy="202" r="2" fill="#77B7FF"/>
    <circle cx="1356" cy="870" r="2" fill="#FF6573"/>
    <circle cx="865" cy="424" r="2" fill="#FFF9EE"/>
  </g>
</svg>
