<svg width="1600" height="900" viewBox="0 0 1600 900" xmlns="http://www.w3.org/2000/svg">
  <defs>
    <linearGradient id="bg" x1="0" y1="0" x2="1" y2="1"><stop offset="0" stop-color="#15080c"/><stop offset=".45" stop-color="#07080d"/><stop offset="1" stop-color="#052016"/></linearGradient>
    <radialGradient id="blue" cx="70%" cy="10%" r="70%"><stop offset="0" stop-color="#133966" stop-opacity=".55"/><stop offset="1" stop-color="#000" stop-opacity="0"/></radialGradient>
    <radialGradient id="red" cx="10%" cy="22%" r="55%"><stop offset="0" stop-color="#5a141c" stop-opacity=".55"/><stop offset="1" stop-color="#000" stop-opacity="0"/></radialGradient>
    <radialGradient id="green" cx="90%" cy="88%" r="45%"><stop offset="0" stop-color="#0f5634" stop-opacity=".40"/><stop offset="1" stop-color="#000" stop-opacity="0"/></radialGradient>
  </defs>
  <rect width="1600" height="900" fill="url(#bg)"/><rect width="1600" height="900" fill="url(#blue)"/><rect width="1600" height="900" fill="url(#red)"/><rect width="1600" height="900" fill="url(#green)"/>
  <g opacity=".13" stroke="#fff" stroke-width="1"><path d="M0 82h1600M0 164h1600M0 246h1600M0 328h1600M0 410h1600M0 492h1600M0 574h1600M0 656h1600M0 738h1600M0 820h1600"/><path d="M80 0l420 900M250 0l420 900M420 0l420 900M590 0l420 900M760 0l420 900M930 0l420 900M1100 0l420 900M1270 0l420 900"/></g>
  <rect x="90" y="48" width="330" height="42" rx="21" fill="#111722" stroke="#fff" stroke-opacity=".18"/><circle cx="115" cy="71" r="7" fill="#ff5259"/><g fill="#e9edf5" opacity=".55"><rect x="140" y="65" width="30" height="8" rx="4"/><rect x="182" y="65" width="30" height="8" rx="4"/><rect x="224" y="65" width="30" height="8" rx="4"/><rect x="266" y="65" width="30" height="8" rx="4"/></g>
  <rect x="1215" y="49" width="297" height="42" rx="21" fill="#092f1f" stroke="#44dc82" stroke-opacity=".4"/><g fill="#76f4aa" opacity=".75"><circle cx="1248" cy="71" r="7"/><circle cx="1286" cy="71" r="7"/><circle cx="1324" cy="71" r="7"/><circle cx="1362" cy="71" r="7"/><circle cx="1400" cy="71" r="7"/></g>
  <rect x="120" y="106" width="1360" height="652" rx="28" fill="#0d1018" fill-opacity=".92" stroke="#fff" stroke-opacity=".16"/>
  <circle cx="156" cy="134" r="8" fill="#ff535c"/><circle cx="184" cy="134" r="8" fill="#ffbe4f"/><circle cx="212" cy="134" r="8" fill="#49d481"/><rect x="254" y="120" width="1178" height="26" rx="13" fill="#fff" fill-opacity=".07" stroke="#fff" stroke-opacity=".10"/><g fill="#d2dcec" opacity=".35"><rect x="282" y="128" width="278" height="10" rx="5"/><rect x="578" y="128" width="182" height="10" rx="5"/><rect x="1140" y="128" width="250" height="10" rx="5"/></g>
  <rect x="142" y="170" width="288" height="472" rx="12" fill="#262833" fill-opacity=".95"/><rect x="498" y="170" width="644" height="472" rx="12" fill="#080c12" fill-opacity=".90" stroke="#50a0f8" stroke-opacity=".22"/><rect x="1192" y="170" width="196" height="472" rx="12" fill="#080d14" fill-opacity=".92" stroke="#4de18b" stroke-opacity=".32"/>
  <rect x="164" y="194" width="256" height="144" rx="10" fill="#ff5259" fill-opacity=".12" stroke="#ff5259" stroke-width="3"/><rect x="170" y="246" width="236" height="36" rx="10" fill="#05070c"/><rect x="170" y="296" width="236" height="32" rx="8" fill="#3e5d46"/>
  <g stroke="#fff" stroke-opacity=".26" stroke-width="5" stroke-linecap="round"><path d="M164 388h242M164 464h242M164 538h242M164 604h242"/></g><g stroke="#ff5259" stroke-width="5" stroke-linecap="round"><path d="M164 388h118M164 464h90M164 538h148M164 604h58"/></g><g fill="#ff5259"><circle cx="282" cy="388" r="9"/><circle cx="254" cy="464" r="9"/><circle cx="312" cy="538" r="9"/><circle cx="222" cy="604" r="9"/></g>
  <g fill="#fff" opacity=".55"><rect x="520" y="198" width="72" height="14" rx="7"/><rect x="620" y="198" width="72" height="14" rx="7"/><rect x="720" y="198" width="72" height="14" rx="7"/><rect x="948" y="198" width="72" height="14" rx="7"/><rect x="1068" y="198" width="72" height="14" rx="7"/></g><rect x="828" y="198" width="72" height="14" rx="7" fill="#ff5259" opacity=".85"/><rect x="520" y="238" width="97" height="30" rx="10" fill="#60abf2"/>
  <rect x="498" y="272" width="644" height="125" rx="10" fill="#080c12" stroke="#62b6ff" stroke-width="3"/><rect x="536" y="284" width="298" height="16" rx="8" fill="#fff" opacity=".78"/><rect x="512" y="320" width="288" height="9" rx="5" fill="#fff" opacity=".25"/><rect x="512" y="350" width="508" height="9" rx="5" fill="#fff" opacity=".25"/><rect x="498" y="350" width="644" height="74" rx="4" fill="#272934"/><rect x="804" y="376" width="32" height="20" rx="4" fill="#fff"/><rect x="808" y="380" width="24" height="12" rx="2" fill="#272934"/>
  <rect x="498" y="432" width="67" height="29" rx="6" fill="#ff5259"/><rect x="498" y="490" width="252" height="30" rx="8" fill="#0d111b" stroke="#fff" stroke-opacity=".22"/><rect x="540" y="502" width="180" height="8" rx="4" fill="#fff" opacity=".65"/><rect x="498" y="533" width="640" height="43" rx="8" fill="#203754"/><rect x="520" y="550" width="340" height="10" rx="5" fill="#d2e4ff" opacity=".6"/><rect x="880" y="550" width="240" height="10" rx="5" fill="#d2e4ff" opacity=".45"/>
  <rect x="1192" y="209" width="106" height="29" rx="9" fill="#4edc7d"/><path d="M1210 224l10 9 24-26" fill="none" stroke="#fff" stroke-width="4" stroke-linecap="round" stroke-linejoin="round"/><rect x="1192" y="240" width="196" height="380" rx="9" fill="#0b111a" stroke="#49eb8a" stroke-width="3"/>
  <g stroke="#fff" stroke-opacity=".15"><path d="M1212 386v230M1268 386v230M1324 386v230M1370 386v230"/><path d="M1195 386h189M1195 415h189M1195 444h189M1195 473h189M1195 502h189M1195 531h189M1195 560h189M1195 589h189M1195 616h189"/></g>
  <g fill="#fff" opacity=".45"><rect x="1210" y="412" width="28" height="7" rx="4"/><rect x="1210" y="439" width="28" height="7" rx="4"/><rect x="1210" y="466" width="28" height="7" rx="4"/><rect x="1210" y="493" width="28" height="7" rx="4"/><rect x="1210" y="520" width="28" height="7" rx="4"/><rect x="1210" y="547" width="28" height="7" rx="4"/><rect x="1210" y="574" width="28" height="7" rx="4"/></g><g fill="#50dc88"><circle cx="1303" cy="414" r="5"/><circle cx="1350" cy="576" r="5"/></g>
  <rect x="90" y="622" width="1420" height="238" rx="30" fill="#080a11" fill-opacity=".92" stroke="#fff" stroke-opacity=".18"/><rect x="122" y="650" width="142" height="6" rx="3" fill="#ff5259"/><g fill="#fff"><rect x="128" y="690" width="440" height="16" rx="8" opacity=".74"/><rect x="128" y="718" width="520" height="16" rx="8" opacity=".60"/><rect x="128" y="746" width="360" height="16" rx="8" opacity=".48"/><rect x="128" y="774" width="280" height="16" rx="8" opacity=".36"/></g>
  <g><rect x="860" y="678" width="120" height="40" rx="20" fill="#fff" fill-opacity=".08" stroke="#fff" stroke-opacity=".20"/><rect x="1010" y="678" width="120" height="40" rx="20" fill="#fff" fill-opacity=".08" stroke="#fff" stroke-opacity=".20"/><rect x="1168" y="678" width="120" height="40" rx="20" fill="#fff" fill-opacity=".08" stroke="#fff" stroke-opacity=".20"/><rect x="1300" y="678" width="120" height="40" rx="20" fill="#fff" fill-opacity=".08" stroke="#fff" stroke-opacity=".20"/><circle cx="880" cy="698" r="7" fill="#ff5259"/><circle cx="1030" cy="698" r="7" fill="#ff5259"/><circle cx="1188" cy="698" r="7" fill="#49dc82"/><circle cx="1320" cy="698" r="7" fill="#ff5259"/></g>
  <g fill="#fff" fill-opacity=".10" stroke="#fff" stroke-opacity=".18"><rect x="868" y="766" width="180" height="69" rx="13"/><rect x="1074" y="766" width="180" height="69" rx="13"/><rect x="1278" y="766" width="180" height="69" rx="13"/></g><g fill="#fff" opacity=".70"><rect x="886" y="784" width="54" height="14" rx="7"/><rect x="1092" y="784" width="54" height="14" rx="7"/><rect x="1296" y="784" width="54" height="14" rx="7"/></g>
</svg>