<svg width="1600" height="900" viewBox="0 0 1600 900" fill="none" xmlns="http://www.w3.org/2000/svg">
  <defs>
    <linearGradient id="bg" x1="0" y1="0" x2="1600" y2="900">
      <stop offset="0%" stop-color="#050915"/>
      <stop offset="44%" stop-color="#0b1224"/>
      <stop offset="74%" stop-color="#171527"/>
      <stop offset="100%" stop-color="#241823"/>
    </linearGradient>
    <linearGradient id="panel" x1="100" y1="80" x2="1500" y2="790">
      <stop stop-color="#111b2c"/>
      <stop offset="0.52" stop-color="#13182b"/>
      <stop offset="1" stop-color="#1f1a28"/>
    </linearGradient>
    <linearGradient id="header" x1="440" y1="130" x2="1420" y2="320">
      <stop stop-color="#101b2d"/>
      <stop offset="0.5" stop-color="#11172a"/>
      <stop offset="1" stop-color="#312332"/>
    </linearGradient>
    <linearGradient id="accent" x1="0" y1="0" x2="1" y2="1">
      <stop stop-color="#61c9ff"/>
      <stop offset="1" stop-color="#ff7a2d"/>
    </linearGradient>
    <linearGradient id="blueGlow" x1="0" y1="0" x2="1" y2="1">
      <stop stop-color="#67c7ff"/>
      <stop offset="1" stop-color="#635bff"/>
    </linearGradient>
    <linearGradient id="greenGlow" x1="0" y1="0" x2="1" y2="1">
      <stop stop-color="#64e58a"/>
      <stop offset="1" stop-color="#1eb980"/>
    </linearGradient>
    <linearGradient id="orangeGlow" x1="0" y1="0" x2="1" y2="1">
      <stop stop-color="#ff9a3d"/>
      <stop offset="1" stop-color="#ff4f55"/>
    </linearGradient>
    <radialGradient id="orbBlue" cx="50%" cy="50%" r="50%">
      <stop stop-color="#36b8ff" stop-opacity="0.45"/>
      <stop offset="1" stop-color="#36b8ff" stop-opacity="0"/>
    </radialGradient>
    <radialGradient id="orbOrange" cx="50%" cy="50%" r="50%">
      <stop stop-color="#ff7a2d" stop-opacity="0.36"/>
      <stop offset="1" stop-color="#ff7a2d" stop-opacity="0"/>
    </radialGradient>
    <filter id="shadow" x="-15%" y="-20%" width="130%" height="150%">
      <feDropShadow dx="0" dy="30" stdDeviation="32" flood-color="#000000" flood-opacity="0.42"/>
    </filter>
    <filter id="softGlow" x="-80%" y="-80%" width="260%" height="260%">
      <feGaussianBlur stdDeviation="5" result="blur"/>
      <feMerge><feMergeNode in="blur"/><feMergeNode in="SourceGraphic"/></feMerge>
    </filter>
    <pattern id="grid" width="44" height="44" patternUnits="userSpaceOnUse">
      <path d="M44 0H0V44" stroke="#ffffff" stroke-opacity="0.045" stroke-width="1"/>
    </pattern>
    <clipPath id="chartClip">
      <rect x="505" y="430" width="470" height="230" rx="18"/>
    </clipPath>
  </defs>

  <rect width="1600" height="900" fill="url(#bg)"/>
  <rect width="1600" height="900" fill="url(#grid)"/>
  <circle cx="170" cy="82" r="310" fill="url(#orbBlue)"/>
  <circle cx="1365" cy="175" r="360" fill="url(#orbOrange)"/>
  <circle cx="1040" cy="860" r="360" fill="#635BFF" opacity="0.08"/>

  <g opacity="0.86">
    <path d="M88 735C265 642 402 683 575 599C744 516 829 393 1008 376C1196 358 1327 452 1512 345" stroke="url(#accent)" stroke-width="2" stroke-opacity="0.18"/>
    <path d="M66 196C236 264 359 232 530 295C694 355 778 470 965 487C1163 505 1318 397 1528 470" stroke="#ffffff" stroke-width="1.5" stroke-opacity="0.08"/>
  </g>

  <g filter="url(#shadow)">
    <rect x="105" y="92" width="1390" height="685" rx="46" fill="url(#panel)" stroke="#ffffff" stroke-opacity="0.15"/>
    <rect x="106" y="93" width="1388" height="683" rx="45" stroke="#5fbfff" stroke-opacity="0.08"/>
  </g>

  <g>
    <rect x="135" y="126" width="255" height="617" rx="30" fill="#070c18" stroke="#ffffff" stroke-opacity="0.1"/>
    <g transform="translate(160 162)">
      <rect width="34" height="34" rx="7" fill="#e9edf7"/>
      <path d="M7 23L15 16L21 20L28 9" stroke="#5bbdff" stroke-width="3" stroke-linecap="round" stroke-linejoin="round"/>
      <path d="M7 27H28" stroke="#ff7a2d" stroke-width="2" stroke-linecap="round" opacity="0.7"/>
      <text x="48" y="24" fill="#ffffff" font-size="28" font-weight="800" font-family="Inter, Arial, sans-serif">StockForecast</text>
      <text x="1" y="78" fill="#A3A8B8" font-size="18" font-weight="700" font-family="Inter, Arial, sans-serif">TFT S5 · LLM-TFT S1</text>
    </g>
    <line x1="160" y1="292" x2="365" y2="292" stroke="#ffffff" stroke-opacity="0.13"/>
    <g font-family="Inter, Arial, sans-serif" font-size="18" font-weight="750">
      <text x="160" y="342" fill="#ffffff">Navigasi</text>
      <circle cx="170" cy="386" r="11" fill="#ff5b55"/>
      <text x="195" y="393" fill="#ffffff">Prediction Studio</text>
      <circle cx="170" cy="430" r="11" fill="#303645" stroke="#ffffff" stroke-opacity="0.12"/>
      <text x="195" y="437" fill="#dfe7ff">Model Performance</text>
      <circle cx="170" cy="474" r="11" fill="#303645" stroke="#ffffff" stroke-opacity="0.12"/>
      <text x="195" y="481" fill="#dfe7ff">Market Data Lab</text>
      <circle cx="170" cy="518" r="11" fill="#303645" stroke="#ffffff" stroke-opacity="0.12"/>
      <text x="195" y="525" fill="#dfe7ff">Sentiment Intelligence</text>
    </g>
    <line x1="160" y1="590" x2="365" y2="590" stroke="#ffffff" stroke-opacity="0.13"/>
    <rect x="160" y="623" width="205" height="56" rx="12" fill="#0c101a"/>
    <text x="180" y="657" fill="#ffffff" font-size="18" font-weight="800" font-family="Inter, Arial, sans-serif">ASII.JK</text>
  </g>

  <g>
    <rect x="432" y="126" width="1018" height="180" rx="34" fill="url(#header)" stroke="#ffffff" stroke-opacity="0.13"/>
    <text x="480" y="170" fill="#72d1ff" font-size="18" font-weight="900" letter-spacing="8" font-family="Inter, Arial, sans-serif">STOCKFORECAST PRO</text>
    <text x="480" y="232" fill="#ffffff" font-size="54" font-weight="950" letter-spacing="-3" font-family="Inter, Arial, sans-serif">LLM-TFT Stock Forecasting</text>
    <text x="482" y="270" fill="#B8C0D4" font-size="22" font-weight="700" font-family="Inter, Arial, sans-serif">Technical indicators · LLM news sentiment · Multi-horizon prediction</text>
  </g>

  <g font-family="Inter, Arial, sans-serif">
    <g transform="translate(432 333)">
      <rect width="300" height="100" rx="24" fill="#151d2d" stroke="#ffffff" stroke-opacity="0.12"/>
      <text x="28" y="34" fill="#BFD1FF" font-size="18" font-weight="700">Dataset</text>
      <text x="28" y="75" fill="#ffffff" font-size="36" font-weight="900">8.599 rows</text>
    </g>
    <g transform="translate(758 333)">
      <rect width="300" height="100" rx="24" fill="#151d2d" stroke="#ffffff" stroke-opacity="0.12"/>
      <text x="28" y="34" fill="#BFD1FF" font-size="18" font-weight="700">News pipeline</text>
      <text x="28" y="75" fill="#ffffff" font-size="36" font-weight="900">44.335 news</text>
    </g>
    <g transform="translate(1084 333)">
      <rect width="300" height="100" rx="24" fill="#151d2d" stroke="#ffffff" stroke-opacity="0.12"/>
      <text x="28" y="34" fill="#BFD1FF" font-size="18" font-weight="700">Directional Acc.</text>
      <text x="28" y="75" fill="#76f39d" font-size="36" font-weight="900">58.27%</text>
    </g>
  </g>

  <g>
    <rect x="432" y="466" width="610" height="240" rx="28" fill="#0d1425" stroke="#ffffff" stroke-opacity="0.11"/>
    <text x="470" y="510" fill="#ffffff" font-size="24" font-weight="900" font-family="Inter, Arial, sans-serif">Prediction Studio</text>
    <text x="470" y="540" fill="#AEB7CA" font-size="16" font-weight="700" font-family="Inter, Arial, sans-serif">Encoder 15 days · H+1 / H+2 / H+3 forecast</text>
    <g clip-path="url(#chartClip)">
      <rect x="505" y="430" width="470" height="230" fill="transparent"/>
      <g opacity="0.45">
        <line x1="505" y1="462" x2="975" y2="462" stroke="#ffffff" stroke-opacity="0.12"/>
        <line x1="505" y1="508" x2="975" y2="508" stroke="#ffffff" stroke-opacity="0.12"/>
        <line x1="505" y1="554" x2="975" y2="554" stroke="#ffffff" stroke-opacity="0.12"/>
        <line x1="505" y1="600" x2="975" y2="600" stroke="#ffffff" stroke-opacity="0.12"/>
        <line x1="505" y1="646" x2="975" y2="646" stroke="#ffffff" stroke-opacity="0.12"/>
      </g>
      <path d="M520 632L562 614L604 623L646 586L688 568L730 548L772 520L814 529L856 493L898 460L940 498" stroke="#eef2fb" stroke-width="6" stroke-linecap="round" stroke-linejoin="round"/>
      <path d="M940 498L982 488L1024 494L1066 482" stroke="#ff8a34" stroke-width="7" stroke-linecap="round" stroke-linejoin="round"/>
      <path d="M940 498L982 478L1024 468L1066 472" stroke="#63c7ff" stroke-width="5" stroke-dasharray="9 10" stroke-linecap="round" stroke-linejoin="round"/>
      <line x1="940" y1="440" x2="940" y2="660" stroke="#ffffff" stroke-width="3" stroke-dasharray="12 13" stroke-opacity="0.35"/>
      <g fill="#eef2fb">
        <circle cx="520" cy="632" r="6"/><circle cx="646" cy="586" r="6"/><circle cx="772" cy="520" r="6"/><circle cx="898" cy="460" r="6"/><circle cx="940" cy="498" r="7"/>
      </g>
      <circle cx="982" cy="488" r="7" fill="#ff8a34"/>
      <circle cx="1024" cy="494" r="7" fill="#ff8a34"/>
      <circle cx="1066" cy="482" r="7" fill="#ff8a34"/>
    </g>
  </g>

  <g font-family="Inter, Arial, sans-serif">
    <rect x="1070" y="466" width="327" height="240" rx="28" fill="#0d1425" stroke="#ffffff" stroke-opacity="0.11"/>
    <text x="1104" y="510" fill="#ffffff" font-size="24" font-weight="900">Model Performance</text>
    <text x="1104" y="540" fill="#AEB7CA" font-size="16" font-weight="700">LLM-TFT improves global error</text>
    <g transform="translate(1104 576)">
      <rect width="48" height="92" rx="12" fill="#62bfff"/><rect x="74" y="42" width="48" height="50" rx="12" fill="#f47a31"/>
      <rect x="162" y="12" width="48" height="80" rx="12" fill="#62bfff"/><rect x="236" y="36" width="48" height="56" rx="12" fill="#f47a31"/>
      <text x="0" y="124" fill="#AEB7CA" font-size="14" font-weight="800">RMSE</text>
      <text x="162" y="124" fill="#AEB7CA" font-size="14" font-weight="800">MAE</text>
    </g>
  </g>

  <g font-family="Inter, Arial, sans-serif">
    <rect x="432" y="732" width="298" height="94" rx="26" fill="#111827" stroke="#ffffff" stroke-opacity="0.12"/>
    <text x="462" y="771" fill="#BFD1FF" font-size="18" font-weight="700">LLM-TFT H+1</text>
    <text x="462" y="810" fill="#ffffff" font-size="36" font-weight="900">Rp 7.139</text>
    <rect x="600" y="744" width="82" height="30" rx="15" fill="#123a2a"/>
    <text x="616" y="765" fill="#74f39b" font-size="17" font-weight="900">+0.19%</text>

    <rect x="758" y="732" width="298" height="94" rx="26" fill="#111827" stroke="#ffffff" stroke-opacity="0.12"/>
    <text x="788" y="771" fill="#BFD1FF" font-size="18" font-weight="700">LLM-TFT H+2</text>
    <text x="788" y="810" fill="#ffffff" font-size="36" font-weight="900">Rp 7.142</text>
    <rect x="926" y="744" width="82" height="30" rx="15" fill="#123a2a"/>
    <text x="942" y="765" fill="#74f39b" font-size="17" font-weight="900">+0.24%</text>

    <rect x="1084" y="732" width="298" height="94" rx="26" fill="#111827" stroke="#ffffff" stroke-opacity="0.12"/>
    <text x="1114" y="771" fill="#BFD1FF" font-size="18" font-weight="700">LLM-TFT H+3</text>
    <text x="1114" y="810" fill="#ffffff" font-size="36" font-weight="900">Rp 7.122</text>
    <rect x="1252" y="744" width="78" height="30" rx="15" fill="#3a1c26"/>
    <text x="1268" y="765" fill="#ff777b" font-size="17" font-weight="900">-0.04%</text>
  </g>

  <g font-family="Inter, Arial, sans-serif">
    <rect x="1206" y="142" width="172" height="42" rx="21" fill="#101827" stroke="#ffffff" stroke-opacity="0.16"/>
    <circle cx="1231" cy="163" r="7" fill="#62bfff"/>
    <text x="1248" y="169" fill="#DDE8FF" font-size="16" font-weight="850">TFT</text>
    <circle cx="1294" cy="163" r="7" fill="#ff8a34"/>
    <text x="1311" y="169" fill="#DDE8FF" font-size="16" font-weight="850">LLM-TFT</text>
  </g>

  <g opacity="0.9" filter="url(#softGlow)">
    <circle cx="1447" cy="735" r="5" fill="#62bfff"/>
    <circle cx="126" cy="98" r="4" fill="#ff8a34"/>
    <circle cx="1456" cy="92" r="4" fill="#62bfff"/>
    <circle cx="396" cy="792" r="4" fill="#76f39d"/>
  </g>
</svg>